#Comment line ignore any data following # character 
#Hierarchical Translation and Rotation (.htr) file 
[Header]	
#Header keywords are followed by a single value 
FileType HTR		#Single word string
DataType HTRS		#Translation followed by rotation and scale data
FileVersion 1		#integer
NumSegments 84		#integer
NumFrames 2		#integer
DataFrameRate 30		#integer, data frame rate in this file
EulerRotationOrder ZYX
CalibrationUnits mm
RotationUnits Degrees
GlobalAxisofGravity Y
BoneLengthAxis Y
ScaleFactor 1.00
[SegmentNames&Hierarchy]
#CHILD	PARENT
MASTER GLOBAL
root MASTER
chest root
L_mid_tent01 root
R_mid_tent01 root
spine01 root
Bip01_Neck chest
L_humerus chest
R_humerus chest
weapon_bone chest
Bip01_Head Bip01_Neck
eye_left_bone Bip01_Head
eye_right_bone Bip01_Head
L_forearm L_humerus
L_front_hand L_forearm
L_weapon_bone L_forearm
L_front_hand01_01 L_front_hand
L_front_hand02_01 L_front_hand
L_front_hand03_01 L_front_hand
L_front_hand01_02 L_front_hand01_01
L_front_hand02_02 L_front_hand02_01
L_front_hand03_02 L_front_hand03_01
R_forearm R_humerus
R_front_hand R_forearm
R_weapon_bone R_forearm
R_front_hand01_01 R_front_hand
R_front_hand02_01 R_front_hand
R_front_hand03_01 R_front_hand
R_front_hand01_02 R_front_hand01_01
R_front_hand02_02 R_front_hand02_01
R_front_hand03_02 R_front_hand03_01
null_rope01_connect L_mid_tent01
Rope1_Seg01 null_rope01_connect
Rope1_Seg02 Rope1_Seg01
Rope1_Seg03 Rope1_Seg02
Rope1_Seg04 Rope1_Seg03
Rope1_Seg05 Rope1_Seg04
Rope1_Seg06 Rope1_Seg05
Rope1_Seg07 Rope1_Seg06
Rope1_Seg09 Rope1_Seg07
L_mid_hand01 Rope1_Seg09
L_mid_hand02 Rope1_Seg09
L_mid_hand03 Rope1_Seg09
null_rope02_connect R_mid_tent01
Rope2_Seg01 null_rope02_connect
Rope2_Seg02 Rope2_Seg01
Rope2_Seg03 Rope2_Seg02
Rope2_Seg04 Rope2_Seg03
Rope2_Seg05 Rope2_Seg04
Rope2_Seg06 Rope2_Seg05
Rope2_Seg07 Rope2_Seg06
Rope2_Seg09 Rope2_Seg07
R_mid_hand01 Rope2_Seg09
R_mid_hand02 Rope2_Seg09
R_mid_hand03 Rope2_Seg09
spine02 spine01
spine03 spine02
pelvis spine03
null_rope03_connect pelvis
null_rope04_connect pelvis
Rope3_Seg01 null_rope03_connect
Rope3_Seg02 Rope3_Seg01
Rope3_Seg03 Rope3_Seg02
Rope3_Seg04 Rope3_Seg03
Rope3_Seg05 Rope3_Seg04
Rope3_Seg06 Rope3_Seg05
Rope3_Seg07 Rope3_Seg06
Rope3_Seg08 Rope3_Seg07
Rope3_Seg09 Rope3_Seg08
R_rear_hand01 Rope3_Seg09
R_rear_hand02 Rope3_Seg09
R_rear_hand03 Rope3_Seg09
Rope4_Seg01 null_rope04_connect
Rope4_Seg02 Rope4_Seg01
Rope4_Seg03 Rope4_Seg02
Rope4_Seg04 Rope4_Seg03
Rope4_Seg05 Rope4_Seg04
Rope4_Seg06 Rope4_Seg05
Rope4_Seg07 Rope4_Seg06
Rope4_Seg08 Rope4_Seg07
Rope4_Seg09 Rope4_Seg08
L_rear_hand01 Rope4_Seg09
L_rear_hand02 Rope4_Seg09
L_rear_hand03 Rope4_Seg09
[BasePosition]
#SegmentName Tx, Ty, Tz, Rx, Ry, Rz, BoneLength
MASTER 0.000000 0.000000 0.000000 -90.000000 0.000000 0.000000 10.000000 
root 0.000000 0.000000 0.000000 0.000000 0.000000 0.000000 10.000000 
chest 0.000000 0.000000 0.000000 0.000000 0.000000 0.000000 10.000000 
L_mid_tent01 0.000000 0.000000 0.000000 0.000000 0.000000 0.000000 10.000000 
R_mid_tent01 0.000000 0.000000 0.000000 0.000000 0.000000 0.000000 10.000000 
spine01 0.000000 0.000000 0.000000 0.000000 0.000000 0.000000 10.000000 
Bip01_Neck 0.000000 0.000000 0.000000 0.000000 0.000000 0.000000 10.000000 
L_humerus 0.000000 0.000000 0.000000 0.000000 0.000000 0.000000 10.000000 
R_humerus 0.000000 0.000000 0.000000 0.000000 0.000000 0.000000 10.000000 
weapon_bone 0.000000 0.000000 0.000000 0.000000 0.000000 0.000000 10.000000 
Bip01_Head 0.000000 0.000000 0.000000 0.000000 0.000000 0.000000 10.000000 
eye_left_bone 0.000000 0.000000 0.000000 0.000000 0.000000 0.000000 10.000000 
eye_right_bone 0.000000 0.000000 0.000000 0.000000 0.000000 0.000000 10.000000 
L_forearm 0.000000 0.000000 0.000000 0.000000 0.000000 0.000000 10.000000 
L_front_hand 0.000000 0.000000 0.000000 0.000000 0.000000 0.000000 10.000000 
L_weapon_bone 0.000000 0.000000 0.000000 0.000000 0.000000 0.000000 10.000000 
L_front_hand01_01 0.000000 0.000000 0.000000 0.000000 0.000000 0.000000 10.000000 
L_front_hand02_01 0.000000 0.000000 0.000000 0.000000 0.000000 0.000000 10.000000 
L_front_hand03_01 0.000000 0.000000 0.000000 0.000000 0.000000 0.000000 10.000000 
L_front_hand01_02 0.000000 0.000000 0.000000 0.000000 0.000000 0.000000 10.000000 
L_front_hand02_02 0.000000 0.000000 0.000000 0.000000 0.000000 0.000000 10.000000 
L_front_hand03_02 0.000000 0.000000 0.000000 0.000000 0.000000 0.000000 10.000000 
R_forearm 0.000000 0.000000 0.000000 0.000000 0.000000 0.000000 10.000000 
R_front_hand 0.000000 0.000000 0.000000 0.000000 0.000000 0.000000 10.000000 
R_weapon_bone 0.000000 0.000000 0.000000 0.000000 0.000000 0.000000 10.000000 
R_front_hand01_01 0.000000 0.000000 0.000000 0.000000 0.000000 0.000000 10.000000 
R_front_hand02_01 0.000000 0.000000 0.000000 0.000000 0.000000 0.000000 10.000000 
R_front_hand03_01 0.000000 0.000000 0.000000 0.000000 0.000000 0.000000 10.000000 
R_front_hand01_02 0.000000 0.000000 0.000000 0.000000 0.000000 0.000000 10.000000 
R_front_hand02_02 0.000000 0.000000 0.000000 0.000000 0.000000 0.000000 10.000000 
R_front_hand03_02 0.000000 0.000000 0.000000 0.000000 0.000000 0.000000 10.000000 
null_rope01_connect 0.000000 0.000000 0.000000 0.000000 0.000000 0.000000 10.000000 
Rope1_Seg01 0.000000 0.000000 0.000000 0.000000 0.000000 0.000000 10.000000 
Rope1_Seg02 0.000000 0.000000 0.000000 0.000000 0.000000 0.000000 10.000000 
Rope1_Seg03 0.000000 0.000000 0.000000 0.000000 0.000000 0.000000 10.000000 
Rope1_Seg04 0.000000 0.000000 0.000000 0.000000 0.000000 0.000000 10.000000 
Rope1_Seg05 0.000000 0.000000 0.000000 0.000000 0.000000 0.000000 10.000000 
Rope1_Seg06 0.000000 0.000000 0.000000 0.000000 0.000000 0.000000 10.000000 
Rope1_Seg07 0.000000 0.000000 0.000000 0.000000 0.000000 0.000000 10.000000 
Rope1_Seg09 0.000000 0.000000 0.000000 0.000000 0.000000 0.000000 10.000000 
L_mid_hand01 0.000000 0.000000 0.000000 0.000000 0.000000 0.000000 10.000000 
L_mid_hand02 0.000000 0.000000 0.000000 0.000000 0.000000 0.000000 10.000000 
L_mid_hand03 0.000000 0.000000 0.000000 0.000000 0.000000 0.000000 10.000000 
null_rope02_connect 0.000000 0.000000 0.000000 0.000000 0.000000 0.000000 10.000000 
Rope2_Seg01 0.000000 0.000000 0.000000 0.000000 0.000000 0.000000 10.000000 
Rope2_Seg02 0.000000 0.000000 0.000000 0.000000 0.000000 0.000000 10.000000 
Rope2_Seg03 0.000000 0.000000 0.000000 0.000000 0.000000 0.000000 10.000000 
Rope2_Seg04 0.000000 0.000000 0.000000 0.000000 0.000000 0.000000 10.000000 
Rope2_Seg05 0.000000 0.000000 0.000000 0.000000 0.000000 0.000000 10.000000 
Rope2_Seg06 0.000000 0.000000 0.000000 0.000000 0.000000 0.000000 10.000000 
Rope2_Seg07 0.000000 0.000000 0.000000 0.000000 0.000000 0.000000 10.000000 
Rope2_Seg09 0.000000 0.000000 0.000000 0.000000 0.000000 0.000000 10.000000 
R_mid_hand01 0.000000 0.000000 0.000000 0.000000 0.000000 0.000000 10.000000 
R_mid_hand02 0.000000 0.000000 0.000000 0.000000 0.000000 0.000000 10.000000 
R_mid_hand03 0.000000 0.000000 0.000000 0.000000 0.000000 0.000000 10.000000 
spine02 0.000000 0.000000 0.000000 0.000000 0.000000 0.000000 10.000000 
spine03 0.000000 0.000000 0.000000 0.000000 0.000000 0.000000 10.000000 
pelvis 0.000000 0.000000 0.000000 0.000000 0.000000 0.000000 10.000000 
null_rope03_connect 0.000000 0.000000 0.000000 0.000000 0.000000 0.000000 10.000000 
null_rope04_connect 0.000000 0.000000 0.000000 0.000000 0.000000 0.000000 10.000000 
Rope3_Seg01 0.000000 0.000000 0.000000 0.000000 0.000000 0.000000 10.000000 
Rope3_Seg02 0.000000 0.000000 0.000000 0.000000 0.000000 0.000000 10.000000 
Rope3_Seg03 0.000000 0.000000 0.000000 0.000000 0.000000 0.000000 10.000000 
Rope3_Seg04 0.000000 0.000000 0.000000 0.000000 0.000000 0.000000 10.000000 
Rope3_Seg05 0.000000 0.000000 0.000000 0.000000 0.000000 0.000000 10.000000 
Rope3_Seg06 0.000000 0.000000 0.000000 0.000000 0.000000 0.000000 10.000000 
Rope3_Seg07 0.000000 0.000000 0.000000 0.000000 0.000000 0.000000 10.000000 
Rope3_Seg08 0.000000 0.000000 0.000000 0.000000 0.000000 0.000000 10.000000 
Rope3_Seg09 0.000000 0.000000 0.000000 0.000000 0.000000 0.000000 10.000000 
R_rear_hand01 0.000000 0.000000 0.000000 0.000000 0.000000 0.000000 10.000000 
R_rear_hand02 0.000000 0.000000 0.000000 0.000000 0.000000 0.000000 10.000000 
R_rear_hand03 0.000000 0.000000 0.000000 0.000000 0.000000 0.000000 10.000000 
Rope4_Seg01 0.000000 0.000000 0.000000 0.000000 0.000000 0.000000 10.000000 
Rope4_Seg02 0.000000 0.000000 0.000000 0.000000 0.000000 0.000000 10.000000 
Rope4_Seg03 0.000000 0.000000 0.000000 0.000000 0.000000 0.000000 10.000000 
Rope4_Seg04 0.000000 0.000000 0.000000 0.000000 0.000000 0.000000 10.000000 
Rope4_Seg05 0.000000 0.000000 0.000000 0.000000 0.000000 0.000000 10.000000 
Rope4_Seg06 0.000000 0.000000 0.000000 0.000000 0.000000 0.000000 10.000000 
Rope4_Seg07 0.000000 0.000000 0.000000 0.000000 0.000000 0.000000 10.000000 
Rope4_Seg08 0.000000 0.000000 0.000000 0.000000 0.000000 0.000000 10.000000 
Rope4_Seg09 0.000000 0.000000 0.000000 0.000000 0.000000 0.000000 10.000000 
L_rear_hand01 0.000000 0.000000 0.000000 0.000000 0.000000 0.000000 10.000000 
L_rear_hand02 0.000000 0.000000 0.000000 0.000000 0.000000 0.000000 10.000000 
L_rear_hand03 0.000000 0.000000 0.000000 0.000000 0.000000 0.000000 10.000000 
#Beginning of Data. Separated by tabs
#Fr	Tx	Ty	Tz	Rx	Ry	Rz	SF
[MASTER]
88 -4554.597656 -1280.560791 24.128239 0.001660 0.001660 0.001660 4731.255371
89 -4576.266602 -1305.678589 23.542055 0.001660 0.001660 0.001660 4758.946289
[root]
88 -16.502380 -62.821960 1406.988770 -93.297478 -21.236490 -75.267799 1408.487183
89 -16.502380 -62.822037 1414.530396 -96.458023 -17.479465 -73.906586 1416.020874
[chest]
88 -84.512650 -34.090519 0.000000 -2.350721 0.616371 171.454483 91.129311
89 -84.512650 -34.090519 0.000000 -2.470952 0.619429 171.319641 91.129311
[L_mid_tent01]
88 27.299623 22.177504 -249.918228 -1.379268 36.511192 66.497536 252.381119
89 27.299623 22.177504 -249.918228 -1.379268 36.511192 66.497536 252.381119
[R_mid_tent01]
88 23.228794 24.509907 226.238495 173.895706 -30.891874 58.389252 228.744751
89 23.228794 24.509907 226.238495 173.895706 -30.891874 58.389252 228.744751
[spine01]
88 -0.361383 -0.195265 0.000000 0.001845 0.001451 13.654368 0.410763
89 -0.361383 -0.195265 0.000000 0.001845 0.001451 13.654368 0.410763
[Bip01_Neck]
88 165.484543 71.581718 0.000119 176.643677 -1.657967 43.431911 180.302734
89 165.484543 71.581718 0.000119 176.643677 -1.657967 43.431911 180.302734
[L_humerus]
88 -13.983130 -135.272980 -120.471481 178.016098 33.195854 -90.877029 181.680161
89 -13.983130 -135.272980 -120.471481 176.909409 38.163319 -91.894066 181.680161
[R_humerus]
88 -13.983309 -135.273102 125.287651 -172.260468 -8.537557 -99.991592 184.909012
89 -13.983309 -135.273102 125.287651 -171.955002 -11.278811 -99.891899 184.909012
[weapon_bone]
88 235.964890 -300.705902 0.000000 0.000000 -89.951546 -128.212341 382.234833
89 235.964890 -300.705902 0.000000 0.000000 -89.951546 -128.212341 382.234833
[Bip01_Head]
88 213.443222 185.717545 11.748305 -18.686657 -11.376195 -35.265583 283.173157
89 213.443268 185.717438 11.749726 -18.025248 -10.975616 -36.507557 283.173187
[eye_left_bone]
88 -24.626970 125.451866 -64.772606 0.000000 -90.000000 -99.840431 143.318359
89 -24.626970 125.451866 -64.772606 0.000000 -90.000000 -99.840431 143.318359
[eye_right_bone]
88 -24.626970 125.451866 64.327362 0.000000 -89.965736 80.156380 143.117676
89 -24.626970 125.451866 64.327362 0.000000 -89.965736 80.156380 143.117676
[L_forearm]
88 322.776093 0.000000 -0.000119 0.000119 -0.002344 -95.807457 322.776093
89 322.776093 0.000000 -0.000119 0.000119 -0.002344 -95.807457 322.776093
[L_front_hand]
88 241.149185 -0.042021 -3.300071 149.893951 -1.837326 -27.423067 241.171753
89 241.149185 -0.042021 -3.300071 149.893951 -1.837326 -27.423067 241.171753
[L_weapon_bone]
88 156.183838 0.000000 0.000000 0.000014 0.000007 0.000001 156.183838
89 156.183838 0.000000 0.000000 0.000014 0.000007 0.000001 156.183838
[L_front_hand01_01]
88 86.095154 20.947098 -0.655860 -0.366594 -0.477154 75.385574 88.609184
89 86.095154 20.947098 -0.655860 -0.366594 -0.477154 75.385574 88.609184
[L_front_hand02_01]
88 86.935165 -11.437475 24.513514 154.399796 -59.883835 -61.369587 91.046425
89 86.935165 -11.437475 24.513514 154.399796 -59.883835 -61.369587 91.046425
[L_front_hand03_01]
88 86.637497 -14.123976 -20.424902 -153.913849 58.118130 -62.702866 90.126129
89 86.637497 -14.123976 -20.424902 -153.913879 58.118130 -62.702892 90.126129
[L_front_hand01_02]
88 71.020905 -0.000179 0.000030 0.000334 -0.002323 -106.379684 71.020905
89 71.020905 -0.000179 0.000030 0.000334 -0.002323 -106.379684 71.020905
[L_front_hand02_02]
88 71.020927 -0.000119 0.000060 0.000334 -0.002323 -106.379684 71.020927
89 71.020927 -0.000119 0.000060 0.000334 -0.002323 -106.379684 71.020927
[L_front_hand03_02]
88 71.020905 -0.000060 0.000060 0.000334 -0.002323 -106.379684 71.020905
89 71.020905 -0.000060 0.000060 0.000334 -0.002323 -106.379684 71.020905
[R_forearm]
88 322.776428 -0.000060 0.000030 0.209504 0.012586 -94.339050 322.776428
89 322.776428 -0.000060 0.000030 0.209504 0.012586 -94.339050 322.776428
[R_front_hand]
88 238.847015 -0.006795 2.210259 -8.879457 -10.642941 -26.315098 238.857239
89 238.847015 -0.006795 2.210259 -8.879457 -10.642941 -26.315098 238.857239
[R_weapon_bone]
88 155.664093 0.002503 -0.000030 0.003487 0.001180 -90.988930 155.664078
89 155.664093 0.002503 -0.000030 0.003487 0.001180 -90.988930 155.664078
[R_front_hand01_01]
88 87.624611 14.231146 22.918642 -154.633484 -59.950619 61.746037 91.683487
89 87.624611 14.231146 22.918642 -154.633514 -59.950634 61.746063 91.683487
[R_front_hand02_01]
88 89.356956 14.367283 -19.491137 154.602661 58.302849 63.744389 92.579636
89 89.356956 14.367283 -19.491137 154.602661 58.302849 63.744389 92.579636
[R_front_hand03_01]
88 87.286232 -22.307278 -0.143439 0.162155 -0.423168 -75.767921 90.091743
89 87.286232 -22.307278 -0.143439 0.162155 -0.423168 -75.767921 90.091743
[R_front_hand01_02]
88 71.020905 0.000060 0.000119 0.002323 -0.000334 106.381714 71.020905
89 71.020905 0.000060 0.000119 0.002323 -0.000334 106.381714 71.020905
[R_front_hand02_02]
88 71.020844 -0.000030 -0.000119 0.002323 -0.000334 106.381714 71.020836
89 71.020844 -0.000030 -0.000119 0.002323 -0.000334 106.381714 71.020836
[R_front_hand03_02]
88 71.020905 0.000000 0.000030 0.002323 -0.000334 106.381714 71.020905
89 71.020905 0.000000 0.000030 0.002323 -0.000334 106.381714 71.020905
[null_rope01_connect]
88 328.732483 0.000000 -0.000238 -156.612976 -58.340923 -154.792999 328.732483
89 328.732483 0.000000 -0.000238 -161.959763 -54.831409 -151.783432 328.732483
[Rope1_Seg01]
88 0.000000 0.000000 0.000000 109.608200 4.958910 -166.123215 0.000000
89 0.000000 0.000000 0.000000 107.854141 3.609519 -164.253677 0.000000
[Rope1_Seg02]
88 139.999863 -0.000179 0.000000 13.698671 -11.290417 -9.714929 139.999863
89 139.999863 -0.000179 0.000000 13.644838 -13.368101 -8.077184 139.999863
[Rope1_Seg03]
88 139.999924 0.000060 -0.000060 12.304533 -10.111670 -9.733183 139.999924
89 139.999924 0.000060 -0.000060 11.527354 -11.665413 -8.704908 139.999924
[Rope1_Seg04]
88 139.999924 -0.000060 -0.000119 7.183698 -11.752364 -2.193397 139.999924
89 139.999924 -0.000060 -0.000119 4.842955 -11.728480 0.414453 139.999924
[Rope1_Seg05]
88 139.999832 0.000119 -0.000060 -0.900462 -14.443213 13.436689 139.999832
89 139.999832 0.000119 -0.000060 -2.406512 -12.247625 17.161818 139.999832
[Rope1_Seg06]
88 139.999954 0.000119 -0.000060 -0.576500 -9.279684 8.640722 139.999954
89 139.999954 0.000119 -0.000060 -0.760037 -8.205192 10.727294 139.999954
[Rope1_Seg07]
88 139.999985 0.000060 0.000000 -0.266074 -5.285945 4.188498 139.999985
89 139.999985 0.000060 0.000000 -0.219013 -4.752460 5.313975 139.999985
[Rope1_Seg09]
88 121.602913 0.000119 -0.000089 -89.793175 -1.359789 0.847147 121.602913
89 121.602913 0.000119 -0.000089 -89.793175 -1.359789 0.847147 121.602913
[L_mid_hand01]
88 103.859421 1.038730 8.195221 130.544373 -67.584534 -38.866943 104.187431
89 103.859421 1.038730 8.195221 130.544373 -67.584534 -38.866943 104.187431
[L_mid_hand02]
88 105.572853 -4.139662 -10.864139 -168.923172 43.409309 -73.498886 106.211075
89 105.572853 -4.139662 -10.864139 -168.923172 43.409309 -73.498886 106.211075
[L_mid_hand03]
88 104.641464 17.579376 -3.913581 -6.012627 17.808174 74.893669 106.179977
89 104.641464 17.579376 -3.913581 -6.012627 17.808174 74.893669 106.179977
[null_rope02_connect]
88 328.732849 0.000179 -0.000119 -105.023697 46.864159 22.520306 328.732849
89 328.732849 0.000179 -0.000119 -103.710449 47.525307 28.162899 328.732849
[Rope2_Seg01]
88 0.000262 0.000277 0.000000 -82.473915 31.083637 -12.026454 0.000381
89 0.000265 0.000278 0.000000 -91.411530 37.297253 -11.508039 0.000384
[Rope2_Seg02]
88 139.999741 -0.000060 -0.000119 -12.409646 -9.993731 15.928412 139.999756
89 139.999741 -0.000060 -0.000119 -7.985808 -13.922834 13.901249 139.999756
[Rope2_Seg03]
88 140.000107 0.000030 0.000000 -11.399532 -22.238174 26.335648 140.000107
89 140.000107 0.000030 0.000000 -6.788883 -22.205221 19.122477 140.000107
[Rope2_Seg04]
88 139.999802 0.000000 -0.000060 -3.244365 -19.816965 20.584860 139.999802
89 139.999802 0.000000 -0.000060 -2.284088 -17.734001 15.370649 139.999802
[Rope2_Seg05]
88 139.999985 -0.000060 0.000119 -0.109488 -12.687430 7.807624 139.999985
89 139.999985 -0.000060 0.000119 -0.430610 -11.594451 5.968776 139.999985
[Rope2_Seg06]
88 139.999893 -0.000030 -0.000119 -1.722643 -13.161879 4.493454 139.999893
89 139.999893 -0.000030 -0.000119 -2.083971 -12.279287 2.644025 139.999893
[Rope2_Seg07]
88 139.999893 0.000060 -0.000060 -1.079717 -9.119416 3.477098 139.999893
89 139.999893 0.000060 -0.000060 -2.506070 -10.045168 2.034688 139.999893
[Rope2_Seg09]
88 121.338966 0.000089 -0.000060 33.793236 -1.359788 -0.847141 121.338966
89 121.338966 0.000089 -0.000060 33.793236 -1.359788 -0.847141 121.338966
[R_mid_hand01]
88 104.680779 11.144459 -10.335981 -16.212063 45.237247 70.462852 105.778534
89 104.680779 11.144459 -10.335981 -16.212059 45.237240 70.462852 105.778534
[R_mid_hand02]
88 104.070427 2.443552 8.231699 49.067368 -67.749771 39.286453 104.424065
89 104.070427 2.443552 8.231699 49.067368 -67.749771 39.286453 104.424065
[R_mid_hand03]
88 106.028137 -11.221827 -5.996406 -177.101105 15.551026 -76.585571 106.788818
89 106.028137 -11.221827 -5.996406 -177.101105 15.551026 -76.585571 106.788818
[spine02]
88 129.756927 0.001550 0.000119 -1.023899 -3.926965 6.770993 129.756927
89 129.756927 0.001550 0.000119 -1.023899 -3.926965 6.770993 129.756927
[spine03]
88 78.613754 0.087404 -4.898717 1.040681 4.146420 4.212376 78.766281
89 78.613754 0.087406 -4.898715 1.040680 4.146419 4.212375 78.766281
[pelvis]
88 169.435242 0.051022 0.000000 0.019518 -0.190233 -10.721436 169.435257
89 169.435242 0.051022 0.000000 0.019518 -0.190233 -10.721436 169.435257
[null_rope03_connect]
88 -1.257226 -2.466202 137.391083 104.179886 -76.153084 -6.345317 137.418976
89 -1.257226 -2.466202 137.391083 114.941704 -74.551964 -20.385403 137.418976
[null_rope04_connect]
88 -1.259640 -2.480268 -137.844437 104.179886 -76.153084 -6.345317 137.872513
89 -1.259640 -2.480268 -137.844437 114.941704 -74.551964 -20.385403 137.872513
[Rope3_Seg01]
88 -0.000004 0.000110 -0.000153 -135.109756 -11.340484 -39.096386 0.000188
89 -0.000003 0.000112 -0.000153 -132.863373 -8.545060 -39.322613 0.000189
[Rope3_Seg02]
88 139.999924 -0.000119 0.000060 -10.101330 -9.146330 -26.050518 139.999924
89 139.999924 -0.000119 0.000060 -1.241820 -12.533652 -23.896431 139.999924
[Rope3_Seg03]
88 139.999924 -0.000119 0.000119 -112.256958 -0.904329 -38.346100 139.999924
89 139.999924 -0.000119 0.000119 -137.683334 -10.836647 -37.849247 139.999924
[Rope3_Seg04]
88 139.999924 0.000119 0.000000 -30.846073 32.423023 1.010200 139.999924
89 139.999924 0.000119 0.000000 -26.868759 31.661102 6.765724 139.999924
[Rope3_Seg05]
88 139.999924 -0.000238 0.000060 -4.551779 12.265572 5.084965 139.999924
89 139.999924 -0.000238 0.000060 -3.990309 10.920285 5.493655 139.999924
[Rope3_Seg06]
88 139.999893 -0.000119 -0.000060 -0.493644 3.996477 2.686697 139.999893
89 139.999893 -0.000119 -0.000060 -0.290597 3.427819 2.803654 139.999893
[Rope3_Seg07]
88 139.999771 0.000060 -0.000119 0.040822 2.390281 1.639948 139.999771
89 139.999771 0.000060 -0.000119 0.136247 2.062341 1.705766 139.999771
[Rope3_Seg08]
88 139.999985 -0.000060 0.000000 0.290223 1.389076 0.954835 139.999985
89 139.999985 -0.000060 0.000000 0.333619 1.205593 0.994373 139.999985
[Rope3_Seg09]
88 90.185997 -0.000179 -0.000060 89.793228 -1.359877 -0.847183 90.185997
89 90.185997 -0.000179 -0.000060 89.793228 -1.359877 -0.847183 90.185997
[R_rear_hand01]
88 103.366196 -6.073594 -10.757982 -177.714203 24.565960 -73.910950 104.101845
89 103.366196 -6.073594 -10.757982 -177.714203 24.565960 -73.910950 104.101845
[R_rear_hand02]
88 100.509819 12.039542 -7.992327 -12.874829 36.868488 72.167213 101.543350
89 100.509819 12.039542 -7.992327 -12.874829 36.868488 72.167213 101.543350
[R_rear_hand03]
88 101.539970 5.215704 5.435467 71.484581 -71.816628 21.513813 101.819031
89 101.539970 5.215704 5.435467 71.484581 -71.816628 21.513813 101.819031
[Rope4_Seg01]
88 0.000000 0.000124 0.000000 70.725479 -46.165634 -125.993233 0.000124
89 0.000000 0.000125 0.000000 66.750648 -45.575211 -121.011955 0.000125
[Rope4_Seg02]
88 139.999985 0.000060 0.000119 13.709746 -24.153288 11.360817 139.999985
89 139.999985 0.000060 0.000119 11.688004 -23.368196 13.432388 139.999985
[Rope4_Seg03]
88 139.999924 0.000000 -0.000238 21.807503 -17.727970 16.366953 139.999924
89 139.999924 0.000000 -0.000238 17.173597 -15.863217 17.016640 139.999924
[Rope4_Seg04]
88 139.999985 0.000000 0.000119 29.764845 -15.859591 32.973488 139.999985
89 139.999985 0.000000 0.000119 23.959520 -16.364866 28.821981 139.999985
[Rope4_Seg05]
88 139.999802 -0.000060 -0.000119 14.098562 2.924113 28.984457 139.999802
89 139.999802 -0.000060 -0.000119 14.673072 -2.413445 27.515089 139.999802
[Rope4_Seg06]
88 139.999924 0.000000 0.000060 2.269453 3.028746 8.451674 139.999924
89 139.999924 0.000000 0.000060 3.178171 1.728851 8.925559 139.999924
[Rope4_Seg07]
88 139.999802 0.000000 0.000000 0.924275 1.806618 4.513695 139.999802
89 139.999802 0.000000 0.000000 1.424387 1.213610 4.855690 139.999802
[Rope4_Seg08]
88 139.999924 0.000000 0.000119 -1.129101 1.025137 2.449957 139.999924
89 139.999924 0.000000 0.000119 -0.861924 0.734062 2.657277 139.999924
[Rope4_Seg09]
88 90.185791 0.000060 0.000060 -135.617828 2.228885 0.850567 90.185791
89 90.185791 0.000060 0.000060 -135.617828 2.228885 0.850567 90.185791
[L_rear_hand01]
88 101.696655 -8.392275 -7.654577 -12.874829 -36.868488 107.832764 102.329041
89 101.696655 -8.392275 -7.654577 -12.874829 -36.868488 107.832764 102.329041
[L_rear_hand02]
88 102.726799 -1.568258 5.773216 71.484581 71.816628 158.486160 102.900848
89 102.726799 -1.568258 5.773216 71.484581 71.816628 158.486160 102.900848
[L_rear_hand03]
88 104.552910 9.721220 -10.420293 -177.714203 -24.565960 -106.089035 105.519653
89 104.552910 9.721220 -10.420293 -177.714203 -24.565960 -106.089035 105.519653
